<?xml version="1.0" encoding="UTF-8"?>
<svg id="Layer_2" data-name="Layer 2" xmlns="http://www.w3.org/2000/svg" viewBox="0 0 435.19 92.01">
  <defs>
    <style>
      .cls-1 {
        fill: #202b55;
      }

      .cls-2 {
        fill: red;
      }
    </style>
  </defs>
  <g id="Layer_1-2" data-name="Layer 1">
    <g>
      <g>
        <path class="cls-2" d="M90.96,0v18.41h27.64v73.53h18.33V18.41h27.57V0h-73.54Z"/>
        <path class="cls-2" d="M199.54,73.54V0h-18.4v91.94h64.36v-18.4h-45.97Z"/>
        <path class="cls-1" d="M326.88,65.94c-2.59,2.59-5.62,4.6-9.09,6.01-3.67,1.51-7.51,2.26-11.53,2.26s-7.87-.74-11.42-2.23c-3.55-1.48-6.64-3.51-9.29-6.07-2.65-2.56-4.75-5.54-6.29-8.96-1.54-3.4-2.3-7.05-2.3-10.94s.77-7.55,2.3-11c1.54-3.44,3.64-6.43,6.29-8.98,2.65-2.54,5.75-4.55,9.29-6.04,3.55-1.48,7.36-2.23,11.42-2.23s7.86.75,11.53,2.25c3.47,1.42,6.5,3.44,9.09,6.02,1.41-4,3.23-7.82,5.42-11.39,1.01-1.66,2.11-3.28,3.29-4.85-3.88-3.01-8.17-5.34-12.85-7-5.3-1.88-10.79-2.82-16.48-2.82-4.37,0-8.56.54-12.6,1.65-4.05,1.09-7.82,2.65-11.35,4.65-3.52,2-6.75,4.4-9.65,7.21-2.91,2.81-5.39,5.91-7.46,9.33-2.07,3.4-3.67,7.08-4.81,11-1.13,3.92-1.69,7.99-1.69,12.2s.56,8.28,1.69,12.17c1.14,3.91,2.74,7.57,4.81,10.97,2.07,3.4,4.56,6.52,7.46,9.33,2.91,2.81,6.13,5.21,9.65,7.21,3.53,2,7.31,3.55,11.35,4.65,4.03,1.09,8.23,1.65,12.6,1.65,5.68,0,11.18-.95,16.48-2.86,4.69-1.67,8.96-4,12.84-6.95-1.19-1.57-2.28-3.2-3.3-4.87-2.18-3.59-3.99-7.4-5.39-11.38Z"/>
        <path class="cls-1" d="M435.19,46.03c0,4.21-.57,8.27-1.7,12.17-1.13,3.9-2.73,7.56-4.78,10.97-2.05,3.41-4.53,6.52-7.44,9.32-2.91,2.81-6.11,5.21-9.62,7.22-3.51,2-7.29,3.55-11.35,4.65-4.06,1.09-8.27,1.64-12.63,1.64s-8.56-.55-12.6-1.64c-4.04-1.09-7.82-2.64-11.35-4.65-3.53-2-6.74-4.41-9.65-7.22-2.91-2.81-5.4-5.92-7.47-9.32-2.07-3.41-3.68-7.06-4.81-10.97-1.13-3.9-1.7-7.96-1.7-12.17s.57-8.28,1.7-12.2c1.13-3.92,2.73-7.58,4.81-10.97,2.07-3.39,4.56-6.48,7.47-9.29,2.91-2.81,6.12-5.2,9.65-7.19,3.53-1.98,7.31-3.52,11.35-4.62,4.04-1.09,8.24-1.64,12.6-1.64s8.57.55,12.63,1.64c4.06,1.1,7.84,2.63,11.35,4.62,3.5,1.98,6.71,4.38,9.62,7.19,2.91,2.81,5.39,5.91,7.44,9.29,2.05,3.39,3.64,7.04,4.78,10.97,1.13,3.92,1.7,7.99,1.7,12.2ZM416.91,46.03c0-3.88-.77-7.55-2.31-11-1.54-3.45-3.62-6.44-6.25-8.98-2.63-2.54-5.73-4.55-9.3-6.04-3.57-1.49-7.36-2.23-11.38-2.23s-7.87.74-11.41,2.23c-3.55,1.49-6.65,3.5-9.3,6.04-2.65,2.54-4.74,5.54-6.28,8.98-1.54,3.45-2.31,7.11-2.31,11s.77,7.53,2.31,10.93c1.54,3.41,3.63,6.39,6.28,8.95,2.65,2.56,5.75,4.59,9.3,6.07,3.55,1.49,7.35,2.23,11.41,2.23s7.81-.74,11.38-2.23c3.57-1.49,6.67-3.51,9.3-6.07,2.63-2.56,4.71-5.54,6.25-8.95,1.54-3.41,2.31-7.05,2.31-10.93Z"/>
      </g>
      <g>
        <rect class="cls-2" y="73.61" width="90.96" height="18.4"/>
        <rect class="cls-2" y="0" width="49.98" height="18.4"/>
        <rect class="cls-1" y="36.81" width="70.47" height="18.4"/>
      </g>
    </g>
  </g>
</svg>